<svg xmlns="http://www.w3.org/2000/svg" width="1400" height="820" viewBox="0 0 1400 820">
 <defs><linearGradient id="sky" x2="0" y2="1"><stop stop-color="#182b49"/><stop offset=".62" stop-color="#7ba3bf"/><stop offset=".63" stop-color="#384b3d"/><stop offset="1" stop-color="#151c1c"/></linearGradient></defs>
 <rect width="1400" height="820" fill="url(#sky)"/><path d="M0 590l190-140 160 90 180-180 210 170 160-120 220 160 180-110v350H0z" fill="#273a35" opacity=".78"/><rect x="40" y="40" width="240" height="42" rx="8" fill="#0b1220" opacity=".8"/><text x="62" y="68" fill="#f8fafc" font-family="Inter,Arial" font-size="21" font-weight="700">AerialMace</text><text x="62" y="105" fill="#e2e8f0" font-family="Inter,Arial" font-size="17">FPS: 144</text><text x="62" y="130" fill="#e2e8f0" font-family="Inter,Arial" font-size="17">XYZ: 123.4 / 64.0 / -87.2</text><rect x="45" y="144" width="250" height="102" rx="8" fill="#0b1220" opacity=".65"/><text x="64" y="174" fill="#93c5fd" font-family="Inter,Arial" font-size="17">Active Modules</text><text x="64" y="202" fill="#f8fafc" font-family="Inter,Arial" font-size="16">Sprint</text><text x="64" y="226" fill="#f8fafc" font-family="Inter,Arial" font-size="16">MaceSwitch</text>
 <rect x="850" y="92" width="490" height="610" rx="16" fill="#0b1020" opacity=".94" stroke="#334155"/><text x="885" y="140" fill="#f8fafc" font-family="Inter,Arial" font-size="27" font-weight="700">HUD Editor</text><text x="885" y="172" fill="#94a3b8" font-family="Inter,Arial" font-size="16">F8 · drag elements to reposition</text><g font-family="Inter,Arial" font-size="17"><rect x="885" y="210" width="420" height="70" rx="9" fill="#162238" stroke="#60a5fa"/><text x="910" y="252" fill="#f8fafc">Watermark</text><text x="1195" y="252" fill="#60a5fa">VISIBLE</text><rect x="885" y="300" width="420" height="70" rx="9" fill="#121a2a"/><text x="910" y="342" fill="#e2e8f0">FPS</text><text x="1210" y="342" fill="#94a3b8">SCALE 1.0</text><rect x="885" y="390" width="420" height="70" rx="9" fill="#121a2a"/><text x="910" y="432" fill="#e2e8f0">Coordinates</text><text x="1180" y="432" fill="#94a3b8">VISIBLE</text><rect x="885" y="480" width="420" height="70" rx="9" fill="#121a2a"/><text x="910" y="522" fill="#e2e8f0">Active Modules</text><text x="1190" y="522" fill="#94a3b8">VISIBLE</text></g><text x="885" y="635" fill="#64748b" font-family="Inter,Arial" font-size="15">ESC · close    Changes save automatically</text><text x="40" y="785" fill="#e2e8f0" font-family="Inter,Arial" font-size="15" opacity=".8">Illustrative in-game HUD preview</text>
</svg>
